<?xml version="1.0" encoding="utf-8"?>
<!-- Generator: Adobe Illustrator 14.0.0, SVG Export Plug-In . SVG Version: 6.00 Build 43363)  -->
<!DOCTYPE svg PUBLIC "-//W3C//DTD SVG 1.1//EN" "http://www.w3.org/Graphics/SVG/1.1/DTD/svg11.dtd">
<svg version="1.1" id="Layer_1" xmlns="http://www.w3.org/2000/svg" xmlns:xlink="http://www.w3.org/1999/xlink" x="0px" y="0px"
	  viewBox="0 0 40 40" enable-background="new 0 0 40 40" xml:space="preserve">
<g>
	<path d="M14.533,33c-3.44,0-6.789-1.001-9.683-2.895c-0.298-0.196-0.426-0.575-0.306-0.918c0.12-0.341,0.455-0.553,0.807-0.511
		c0.449,0.055,0.905,0.081,1.355,0.081c1.916,0,3.811-0.5,5.485-1.435C10.16,26.64,8.516,25,7.839,22.846
		c-0.082-0.262-0.023-0.549,0.155-0.754c0.077-0.089,0.171-0.156,0.274-0.2c-1.62-1.317-2.636-3.359-2.586-5.536
		c0.006-0.271,0.151-0.521,0.383-0.656c0.209-0.124,0.463-0.136,0.682-0.039c-1.28-2.121-1.393-4.87-0.092-7.145
		c0.125-0.22,0.35-0.364,0.6-0.385c0.249-0.02,0.492,0.087,0.65,0.284c2.74,3.429,6.698,5.614,10.974,6.086
		c-0.138-1.742,0.371-3.475,1.458-4.872C21.638,7.957,23.582,7,25.672,7c1.725,0,3.398,0.679,4.656,1.876
		c1.126-0.269,2.203-0.711,3.209-1.317c0.271-0.166,0.616-0.142,0.863,0.062c0.248,0.203,0.348,0.537,0.251,0.848
		c-0.196,0.622-0.476,1.21-0.827,1.745c0.203-0.08,0.404-0.165,0.602-0.255c0.311-0.141,0.676-0.056,0.895,0.21
		c0.219,0.265,0.24,0.646,0.051,0.935c-0.791,1.212-1.758,2.268-2.875,3.143c0.098,4.83-1.786,9.77-5.086,13.292
		C24.063,31.11,19.61,33,14.533,33z M8.343,30.207c1.955,0.813,4.053,1.236,6.19,1.236c5.875,0,9.645-2.709,11.773-4.982
		c3.113-3.321,4.853-8.018,4.651-12.562c-0.011-0.264,0.108-0.513,0.317-0.668c0.418-0.306,0.813-0.64,1.186-1
		c-0.364,0.079-0.731,0.14-1.104,0.185c-0.357,0.042-0.695-0.173-0.813-0.521c-0.115-0.347,0.021-0.729,0.33-0.92
		c0.451-0.275,0.854-0.614,1.201-1.003c-0.6,0.218-1.217,0.393-1.846,0.518c-0.258,0.053-0.522-0.033-0.703-0.228
		c-0.997-1.085-2.402-1.705-3.855-1.705c-1.621,0-3.131,0.743-4.139,2.039c-1.011,1.301-1.379,2.969-1.01,4.582
		c0.054,0.237-0.004,0.488-0.158,0.675c-0.153,0.189-0.385,0.292-0.624,0.28c-4.659-0.239-9.05-2.337-12.223-5.805
		c-0.725,2.251,0.085,4.801,2.091,6.171c0.283,0.193,0.407,0.555,0.303,0.884c-0.104,0.331-0.408,0.552-0.75,0.539
		c-0.623-0.018-1.245-0.127-1.839-0.319c0.436,2.028,2.051,3.711,4.125,4.137c0.346,0.07,0.6,0.374,0.612,0.735
		s-0.219,0.684-0.561,0.779c-0.555,0.153-1.129,0.236-1.707,0.245c0.923,1.568,2.588,2.581,4.438,2.618
		c0.323,0.006,0.607,0.219,0.709,0.53c0.102,0.313,0,0.657-0.253,0.86C12.85,28.974,10.643,29.907,8.343,30.207z"/>
</g>
</svg>
