<svg width="431" height="434" viewBox="0 0 431 434" fill="none" xmlns="http://www.w3.org/2000/svg">
<path d="M242.107 414.637C239.335 415.138 237.317 414.733 236.052 413.42C234.599 412.288 233.616 410.704 233.101 408.669C232.406 406.446 232.085 403.861 232.14 400.916C232.375 398.157 230.904 393.065 227.727 385.639C224.73 378.401 220.743 369.947 215.766 360.278C210.795 350.24 205.098 339.636 198.675 328.467C192.44 317.116 186.197 306.134 179.948 295.52C173.699 284.907 167.801 275.22 162.254 266.461C156.707 257.702 152.231 250.804 148.825 245.769C144.703 239.614 140.223 232.901 135.386 225.628C131.083 219.287 126.061 212.011 120.32 203.8C114.398 195.403 107.66 186.345 100.105 176.628L112.85 144.818C114.593 140.246 117.204 138.453 120.685 139.438C123.986 140.236 128.232 144.643 133.424 152.659C136.114 156.577 140.413 163.102 146.322 172.237C152.049 181.183 158.309 191.245 165.1 202.421C171.898 213.229 178.78 224.5 185.745 236.232C192.717 247.596 198.695 257.928 203.679 267.23C208.489 275.975 214.012 286.023 220.248 297.373C230.752 316.906 244.989 343.692 262.959 377.729C269.921 379.7 276.965 377.252 284.091 370.386C291.967 362.797 298.171 351.032 302.703 335.093C307.422 318.974 308.875 300.215 307.062 278.817C305.249 257.419 299.326 234.195 289.293 209.146C279.266 183.728 263.536 158.02 242.102 132.022C230.391 117.992 218.622 107.091 206.794 99.3207C194.967 91.5501 183.457 86.548 172.264 84.3144C161.258 81.9001 150.754 82.2577 140.75 85.3873C130.934 88.3361 121.995 93.6955 113.931 101.465C94.9907 119.715 82.9834 146.474 77.9088 181.741L54.0059 159.75C53.6414 149.613 55.1982 140.157 58.6762 131.381C62.161 122.237 65.8997 114.295 69.8924 107.555C74.6421 99.7234 80.2083 92.5518 86.591 86.04C98.5927 74.4755 112.384 65.7069 127.966 59.734C143.554 53.393 159.897 51.0257 176.996 52.6322C194.282 54.058 211.948 59.8189 229.993 69.9149C247.859 79.8235 265.26 94.8802 282.198 115.085C291.928 126.685 300.609 140.198 308.243 155.626C315.883 170.686 322.123 186.733 326.964 203.767C331.992 220.62 335.353 237.995 337.047 255.891C338.741 273.787 338.42 291.094 336.084 307.81C333.929 324.714 329.491 340.563 322.77 355.356C316.23 370.337 307.147 383.429 295.52 394.632C291.777 397.878 287.3 400.926 282.09 403.776C277.624 406.272 272.056 408.563 265.387 410.649C258.718 412.735 250.958 414.065 242.107 414.637Z" fill="#E0EDFF"/>
</svg>
